HIERARCHY
ROOT Root
{
	OFFSET 0.000000 0.000000 0.000000
	CHANNELS 6 Xposition Yposition Zposition Xrotation Yrotation Zrotation
	JOINT Pelvis_R
	{
		OFFSET 0.000000 0.000000 10.000000
		CHANNELS 3 Xrotation Yrotation Zrotation
		JOINT Thigh_R
		{
			OFFSET 0.000000 -0.000000 9.000000
			CHANNELS 3 Xrotation Yrotation Zrotation
			JOINT Shin_R
			{
				OFFSET 0.000000 -0.000002 50.000000
				CHANNELS 3 Xrotation Yrotation Zrotation
				JOINT Foot_R
				{
					OFFSET 0.000000 -0.000002 41.500004
					CHANNELS 3 Xrotation Yrotation Zrotation
					End Site
					{
						OFFSET 0.000000 -0.000001 18.499994
					}
				}
			}
		}
	}
	JOINT Pelvis_L
	{
		OFFSET 0.000000 0.000000 10.000000
		CHANNELS 3 Xrotation Yrotation Zrotation
		JOINT Thigh_L
		{
			OFFSET 0.000000 -0.000000 9.000000
			CHANNELS 3 Xrotation Yrotation Zrotation
			JOINT Shin_L
			{
				OFFSET 0.000000 -0.000002 50.000000
				CHANNELS 3 Xrotation Yrotation Zrotation
				JOINT Foot_L
				{
					OFFSET 0.000000 -0.000002 41.500004
					CHANNELS 3 Xrotation Yrotation Zrotation
					End Site
					{
						OFFSET 0.000000 -0.000001 18.499994
					}
				}
			}
		}
	}
	JOINT Spine
	{
		OFFSET 0.000000 0.000000 10.000000
		CHANNELS 3 Xrotation Yrotation Zrotation
		JOINT Neck
		{
			OFFSET 0.000000 -0.000002 52.499996
			CHANNELS 3 Xrotation Yrotation Zrotation
			JOINT Head
			{
				OFFSET 0.000000 -0.000001 16.500002
				CHANNELS 3 Xrotation Yrotation Zrotation
				End Site
				{
					OFFSET 0.000000 -0.000000 9.499997
				}
			}
		}
		JOINT Shoulder_R
		{
			OFFSET 0.000000 -0.000002 52.499996
			CHANNELS 3 Xrotation Yrotation Zrotation
			JOINT Upperarm_R
			{
				OFFSET 0.000000 -0.000001 16.500002
				CHANNELS 3 Xrotation Yrotation Zrotation
				JOINT Forearm_R
				{
					OFFSET 0.000000 -0.000001 25.999992
					CHANNELS 3 Xrotation Yrotation Zrotation
					JOINT Hand_R
					{
						OFFSET 0.000000 -0.000001 24.000000
						CHANNELS 3 Xrotation Yrotation Zrotation
						End Site
						{
							OFFSET 0.000000 -0.000000 7.500005
						}
					}
				}
			}
		}
		JOINT Shoulder_L
		{
			OFFSET 0.000000 -0.000002 52.499996
			CHANNELS 3 Xrotation Yrotation Zrotation
			JOINT Upperarm_L
			{
				OFFSET 0.000000 -0.000001 16.500002
				CHANNELS 3 Xrotation Yrotation Zrotation
				JOINT Forearm_L
				{
					OFFSET 0.000000 -0.000001 25.999992
					CHANNELS 3 Xrotation Yrotation Zrotation
					JOINT Hand_L
					{
						OFFSET 0.000000 -0.000001 24.000000
						CHANNELS 3 Xrotation Yrotation Zrotation
						End Site
						{
							OFFSET 0.000000 -0.000000 7.500005
						}
					}
				}
			}
		}
	}
}
MOTION
Frames: 12
Frame Time: 0.041667
0.139326 92.483017 -0.000709 -0.000000 0.000000 -0.000000 -181.960638 -80.857542 -182.301314 -87.167284 -15.278378 98.800879 20.552024 2.770390 2.264022 -42.114147 17.447233 32.382876 -181.960679 99.142443 181.670410 -88.030224 -2.749813 -79.605035 20.050184 -2.942196 -1.596745 -44.352622 -1.778518 -1.510267 91.388238 -1.958139 2.006158 32.246006 2.256214 -5.845162 5.129928 -2.444852 5.431005 84.635162 -84.371326 177.603606 -78.675303 -1.501298 87.902458 -141.247247 32.076757 281.721725 -3.895729 -9.413470 3.689736 84.635114 95.628686 -174.377653 -71.040565 12.874451 -61.551486 -157.574582 25.400763 -340.157245 -9.263862 -3.523397 5.300177 
-0.231767 92.829071 0.004106 -0.000000 0.000000 -0.000000 -182.648192 -83.111135 -182.987243 -87.764495 -9.778322 95.594658 21.283541 2.701380 1.693482 -44.326172 18.924625 33.216655 -182.648233 96.888856 182.347637 -87.605782 -6.688137 -81.775191 18.482589 -3.723979 -2.040527 -43.804998 -3.347945 -3.039306 92.172235 -1.891617 1.964714 31.680053 2.271029 -5.826100 4.149488 -2.186389 4.752476 89.322810 -84.953504 183.602452 -78.014509 1.348636 86.636257 -148.163756 35.254322 281.905485 -5.242197 -6.116298 -0.710600 89.322858 95.046501 -179.408101 -70.842654 9.482384 -62.231793 -166.258102 24.103147 -338.939395 -7.579792 -4.996882 6.391020 
0.262266 94.172882 0.006929 -0.000000 0.000000 -0.000000 -167.138212 -84.372985 -165.821611 -87.186210 -4.342354 94.431942 18.449009 2.266465 1.505889 -37.680494 20.041242 30.435914 -167.138226 95.626999 168.334452 -89.210228 -3.361192 -82.912759 17.002431 -3.292210 -1.844826 -37.122396 -2.178099 -2.011734 89.439408 -1.922744 1.904026 33.003187 2.504772 -6.141540 3.831594 2.751205 -5.121651 85.925870 -85.425435 176.870412 -80.786835 5.779903 88.085371 -170.689556 38.116981 298.661387 1.103551 -3.437341 3.392198 85.925822 94.574563 -173.805556 -70.142115 1.774189 -63.122511 -180.405035 18.723731 -336.623797 -5.332578 -2.262224 2.736967 
-0.367200 94.325233 0.007405 -0.000000 0.000000 -0.000000 -189.637402 -82.383980 -191.003904 -88.847190 -9.536530 96.277868 17.136617 2.009555 1.324983 -39.272997 21.059572 35.785711 -189.637443 97.616012 188.439223 -87.645650 -4.161620 -81.762050 18.058626 -2.699863 -1.671882 -38.008053 -3.527962 -3.516107 91.886876 -1.457643 1.506449 31.568485 1.834756 -4.608660 4.239808 4.878848 -9.675353 88.479165 -83.920472 181.914712 -80.259183 4.073973 88.740686 -165.480621 35.027997 298.364192 2.919963 -8.742112 9.240770 88.479138 96.079520 -178.823560 -70.777651 -0.168745 -62.956995 -185.602072 15.971631 -336.580302 -3.271922 -5.923240 6.254782 
-0.570744 93.298218 0.007950 -0.000000 0.000000 -0.000000 -181.082508 -81.800975 -181.249643 -88.062210 -8.733486 97.454785 18.968608 1.724082 1.166954 -40.130722 22.732171 37.922976 -181.082535 98.199009 180.937749 -86.747077 -5.888732 -79.515969 16.675596 -4.186657 -2.255134 -39.376976 -4.341118 -4.816670 90.160205 -1.192645 1.195984 32.497104 0.848856 -2.535823 5.480332 5.123749 -10.406397 92.767616 -83.219421 184.500594 -79.191611 4.317212 88.009610 -165.687890 33.987172 297.579649 8.769552 -14.228787 18.672434 92.767561 96.780577 -181.410794 -70.689951 -1.579369 -62.658673 -188.550541 14.718815 -336.287615 -2.631166 -4.665723 4.842659 
-0.253645 93.472382 0.004060 -0.000000 0.000000 -0.000000 -182.960646 -81.381642 -183.442912 -88.491760 -8.556922 97.989821 16.398780 2.396735 1.872735 -36.310023 23.237202 37.014909 -182.960673 98.618342 182.545917 -86.007197 -5.607406 -78.616563 16.813503 -4.674499 -2.473894 -35.994250 -2.951349 -2.914247 89.310802 -1.619748 1.600383 31.918792 1.733805 -4.348612 5.733092 2.673917 -5.076171 93.043999 -83.615101 184.241675 -78.869062 5.330158 87.881237 -168.123276 35.241372 297.655628 9.623574 -14.364088 18.992237 93.043712 96.384897 -180.512078 -70.127793 0.307454 -61.719556 -186.608814 17.223411 -336.073366 -4.317131 -6.544793 6.775688 
-0.127321 93.179535 0.003201 -0.000000 0.000000 -0.000000 -184.506031 -82.068951 -185.176455 -88.695962 -8.736307 97.207566 18.552677 2.244894 1.620006 -41.162743 19.878238 33.393666 -184.506072 97.931054 183.922323 -86.082520 -7.444478 -79.697591 16.973715 -4.232019 -2.194928 -41.663867 -3.778881 -4.097804 92.578768 -1.699807 1.778075 30.261259 2.506229 -5.929568 4.078517 -0.241169 0.800796 86.326761 -84.169924 180.562389 -78.270553 1.583753 87.080431 -153.281657 32.882720 289.010712 4.921749 -14.158674 16.232798 86.326563 95.830081 -177.230404 -70.415637 7.672756 -61.672189 -170.859395 23.422568 -338.804157 -6.222263 -8.521276 10.004654 
0.235215 93.567398 0.002525 -0.000000 0.000000 -0.000000 -175.405419 -83.767844 -174.877035 -87.555778 -7.743031 95.219592 18.749445 3.587424 2.661110 -41.364514 17.964629 29.480070 -175.405460 96.232147 175.879461 -88.059819 -1.448683 -81.584602 21.008974 -3.889400 -1.890790 -41.150763 -2.700459 -2.958393 91.697475 -1.973436 2.032773 31.582016 2.679482 -6.568510 4.974589 -1.851319 4.219835 78.911757 -85.350693 171.822411 -80.137892 0.240073 87.833309 -150.437690 34.344705 288.055715 -3.793863 -6.971640 1.969526 78.911641 94.649312 -169.282400 -69.834853 11.619636 -61.868912 -160.099935 27.130439 -341.017357 -9.706195 -4.124566 5.613139 
-0.185263 92.825989 0.006206 -0.000000 0.000000 -0.000000 -167.223904 -84.678479 -165.990399 -87.784767 -4.088462 94.611015 22.218247 1.996595 1.287225 -44.347073 19.341252 30.462504 -167.223945 95.321512 168.350503 -88.762830 -3.576443 -82.835872 20.831992 -3.519468 -1.637691 -43.479820 -2.382328 -2.501592 92.945351 -1.640021 1.726559 29.715513 1.468064 -3.952296 3.545969 -2.982330 5.986477 87.983799 -85.065027 182.741984 -77.709719 3.374286 85.470487 -156.060752 38.106203 283.004408 -4.243316 -2.405297 -2.396288 87.983833 94.934964 -179.127954 -70.220745 8.651328 -62.273307 -167.683289 25.285470 -339.959934 -7.090002 -5.741818 7.039269 
0.195169 93.274147 0.004434 -0.000000 0.000000 -0.000000 -173.500547 -84.155792 -172.803089 -88.561831 -5.433444 95.672775 20.437927 2.228994 1.684360 -43.143296 19.694367 31.257633 -173.500602 95.844199 174.130728 -87.945441 -5.303096 -82.083014 19.041908 -3.040946 -1.377335 -42.491030 -2.734473 -3.386395 93.090021 -1.769977 1.868087 29.295060 1.724374 -4.478672 3.257264 -2.910673 5.786045 93.554993 -85.343166 189.093405 -76.572616 3.953241 84.576491 -152.811904 39.118655 277.591483 -1.072441 -5.553653 2.598593 93.554788 94.656832 -184.273709 -71.745926 9.678866 -63.428606 -165.942888 25.211492 -341.820451 -7.205839 -6.777108 8.215924 
-0.119475 92.734268 0.001905 -0.000000 0.000000 -0.000000 -172.294145 -85.183326 -171.619814 -88.241878 -2.743314 93.936603 21.345000 2.560912 1.591378 -43.225218 19.604279 29.512209 -172.294199 94.816672 172.914572 -88.766259 -6.036349 -83.888834 18.848826 -2.014410 -0.928511 -41.971980 -3.825266 -4.826064 93.179893 -1.584334 1.674785 28.553630 2.306808 -5.296866 3.703663 -3.480404 6.953878 89.524567 -85.239982 184.620560 -76.885015 2.718847 84.525490 -150.223440 38.707672 275.634743 0.859617 -8.007794 6.254430 89.524171 94.759995 -180.819341 -71.464426 10.080200 -63.458960 -163.730549 24.919995 -341.565849 -7.803041 -5.207427 6.582476 
-0.131541 92.436913 0.002836 -0.000000 0.000000 -0.000000 -172.779498 -84.107687 -171.998384 -87.807198 -4.507098 94.934439 20.762797 2.916044 1.920645 -43.959097 20.060790 31.890625 -172.779539 95.892304 173.484770 -88.254377 -6.418838 -82.382894 17.612244 -3.081328 -1.544947 -42.739410 -3.773403 -4.465255 93.203211 -1.684839 1.781751 29.181454 2.407482 -5.647928 3.107488 -2.866796 5.752288 90.453479 -84.875940 185.791473 -76.717122 2.540828 85.006711 -147.261583 38.628828 273.068613 3.286519 -10.122696 10.429420 90.453240 95.124058 -181.570511 -72.007222 11.355945 -63.215621 -161.173463 25.594165 -342.724850 -8.481132 -5.409316 6.915899 
